<svg width="28" height="17" viewBox="0 0 28 17" fill="none" xmlns="http://www.w3.org/2000/svg">
<path d="M1.25 1.125H3.65424C4.13263 1.125 4.37183 1.125 4.56628 1.21174C4.73771 1.28821 4.88415 1.41138 4.98886 1.56717C5.10763 1.74388 5.14862 1.97954 5.23058 2.45085L5.76087 5.5M5.76087 5.5L6.99173 12.5774C7.17091 13.6077 7.2605 14.1228 7.52583 14.4939C7.75945 14.8207 8.08606 15.0695 8.46311 15.208C8.89133 15.3654 9.41176 15.315 10.4526 15.2143L23.9832 13.9048C25.0046 13.806 25.5152 13.7566 25.9012 13.5259C26.2411 13.3227 26.513 13.0232 26.6825 12.6652C26.875 12.2589 26.875 11.7458 26.875 10.7197V9.23168C26.875 8.14116 26.875 7.5959 26.665 7.17455C26.4802 6.80377 26.1848 6.49953 25.8197 6.30385C25.4047 6.08148 24.8597 6.06535 23.7697 6.03308L5.76087 5.5Z" stroke="#262F56" stroke-width="1.8" stroke-linecap="round" stroke-linejoin="round"/>
</svg>
